<?xml version="1.0" standalone="no"?>
<!DOCTYPE svg PUBLIC "-//W3C//DTD SVG 20010904//EN"
 "http://www.w3.org/TR/2001/REC-SVG-20010904/DTD/svg10.dtd">
<svg version="1.0" xmlns="http://www.w3.org/2000/svg"
 width="209.000000pt" height="191.000000pt" viewBox="0 0 209.000000 191.000000"
 preserveAspectRatio="xMidYMid meet">

<g transform="translate(0.000000,191.000000) scale(0.100000,-0.100000)"
fill="#000000" stroke="none">
<path d="M660 1720 c-281 -142 -384 -189 -412 -189 l-38 -1 0 -70 0 -70 835 0
835 0 0 70 0 70 -36 0 c-28 0 -129 47 -412 190 -206 105 -380 190 -386 189 -6
0 -180 -85 -386 -189z"/>
<path d="M300 925 l0 -395 105 0 105 0 0 395 0 395 -105 0 -105 0 0 -395z"/>
<path d="M726 1298 c-8 -30 -8 -716 0 -746 6 -22 10 -23 108 -20 l101 3 3 393
2 392 -104 0 c-99 0 -104 -1 -110 -22z"/>
<path d="M1155 1307 c-3 -6 -4 -183 -3 -392 l3 -380 101 -3 101 -3 6 68 c9 88
9 616 1 677 l-7 46 -99 0 c-70 0 -100 -4 -103 -13z"/>
<path d="M1580 925 l0 -395 104 0 103 0 7 46 c3 26 6 204 6 395 l0 349 -110 0
-110 0 0 -395z"/>
<path d="M217 453 c-4 -3 -7 -37 -7 -75 l0 -68 -42 0 c-24 0 -48 -4 -55 -8 -7
-4 -13 -37 -15 -77 l-3 -70 -45 -5 -45 -5 -3 -73 -3 -72 1043 2 1043 3 3 72 3
72 -48 3 -48 3 -3 72 -3 72 -52 8 -52 8 -3 73 -3 72 -828 0 c-455 0 -831 -3
-834 -7z"/>
</g>
</svg>
